<svg width="128" height="128" viewBox="0 0 128 128" fill="none" xmlns="http://www.w3.org/2000/svg">
<path d="M114.957 59.3351C114.832 57.138 114.448 54.9498 113.963 52.8032C112.694 46.9978 110.356 41.4432 107.158 36.4397C99.9507 25.1047 88.1177 16.7764 74.9568 14.0116C73.0278 13.552 71.0572 13.2596 69.086 13.0759C66.4889 12.8 63.8668 12.7335 61.2614 12.9005C59.1404 12.976 57.0112 13.2346 54.9318 13.6442C53.0195 13.9117 51.1571 14.4378 49.3036 14.9472C47.5667 15.49 45.8464 16.0999 44.1676 16.8013C42.5728 17.4778 41.0028 18.2215 39.4828 19.065C37.9795 19.8752 36.5184 20.7776 35.1155 21.7632C34.7648 22.0224 34.3974 22.256 34.0217 22.4564C30.5228 19.8004 26.9817 17.1936 23.2992 14.7968C22.2886 14.1703 21.303 13.4688 20.1676 13.0842C18.2969 12.4327 16.126 12.9338 14.656 14.2618C13.2614 15.5066 12.6604 17.4279 12.8268 19.2653C12.8352 21.7044 12.8102 24.1434 12.8435 26.5824C12.8102 29.0464 12.8352 31.5194 12.8268 33.9834C12.8268 36.4391 12.8185 38.8948 12.8352 41.3511C12.8185 44.2164 12.8185 47.0816 12.8352 49.938C12.8185 52.7277 12.8185 55.5181 12.8435 58.2996C12.8601 61.7831 12.6764 65.2826 13.0688 68.7495C13.3446 72.3245 14.0876 75.8663 15.1481 79.2826C20 95.145 33.0937 108.268 49.0272 112.912L49.0355 112.97C52.3507 113.948 55.758 114.683 59.1987 114.95C63.015 115.317 66.8896 115.309 70.6809 114.725C72.7187 114.566 74.7142 114.065 76.7104 113.622C79.0067 113.012 81.2614 112.277 83.4579 111.383C85.5206 110.498 87.5584 109.554 89.4873 108.401C91.216 107.441 92.8608 106.338 94.448 105.169C96.2937 103.799 98.0556 102.312 99.7004 100.708C100.978 99.4964 102.155 98.1684 103.3 96.8237C104.402 95.4957 105.446 94.1172 106.423 92.6804C107.308 91.369 108.127 90.0154 108.911 88.6375C109.722 87.0836 110.498 85.522 111.191 83.9181C111.951 81.9885 112.703 80.0589 113.229 78.0628C113.68 76.4256 114.172 74.7802 114.331 73.0925C114.765 71.3133 114.957 69.442 115.032 67.6212C115.274 64.873 115.258 62.0832 114.957 59.3351ZM96.2016 52.6138C95.5814 54.274 94.4857 55.696 93.1904 56.8896C92.0518 58.0154 90.9196 59.1476 89.79 60.2842C88.583 61.4912 87.3696 62.6912 86.1721 63.9053C85.015 65.0605 83.856 66.2087 82.7059 67.3677C81.4451 68.6317 80.1792 69.888 78.9228 71.154C77.4899 72.5895 76.0499 74.0167 74.6188 75.4567C73.2627 76.818 71.8995 78.1697 70.5433 79.5309C69.1756 80.9031 67.8016 82.2663 66.4364 83.6391C65.1801 84.8532 64.03 86.1933 62.6124 87.2308C60.8422 88.3424 58.766 88.8929 56.6784 88.8679C54.2675 88.7137 51.8944 87.7581 50.1625 86.0551C44.8012 80.6989 39.447 75.3364 34.0857 69.9808C32.7724 68.6829 31.8963 67.0029 31.4233 65.2295C30.9363 62.786 31.2243 60.1588 32.4787 57.9828C33.4387 56.2887 34.9145 54.946 36.5945 53.9904C38.4396 53.1277 40.4908 52.7584 42.5196 52.994C44.7091 53.3223 46.8166 54.3232 48.3475 55.9405C51.2524 58.8532 54.1523 61.7696 57.0752 64.6663C57.9584 63.8285 58.8051 62.9517 59.6537 62.0781C60.8806 60.896 62.0851 59.689 63.2627 58.457C64.4262 57.3632 65.5494 56.2221 66.6496 55.0644C67.4419 54.3597 68.16 53.5789 68.9088 52.8314C70.1382 51.6359 71.3401 50.4148 72.5427 49.1943C73.6908 48.0845 74.807 46.9453 75.9296 45.8132C77.1366 44.6356 78.3136 43.4285 79.511 42.242C80.7174 41.0189 82.1984 40.0749 83.8329 39.5405C85.9161 38.9472 88.1593 39.0061 90.2195 39.6743C92.8435 40.6797 94.9606 42.7405 96.1081 45.2973C96.9619 47.6391 97.0611 50.2567 96.2009 52.6144L96.2016 52.6138Z" fill="#F1F5F9"/>
</svg>
