<svg width="128" height="128" viewBox="0 0 128 128" fill="none" xmlns="http://www.w3.org/2000/svg">
<path d="M114.739 85.0497V82.6273C114.746 76.7207 114.739 70.7578 114.739 64.201C113.167 65.5015 111.921 66.7623 110.78 68.0596C107.439 71.8541 104.598 76.0647 101.595 80.13C96.4175 87.1412 91.1728 94.082 84.4153 99.6948C70.732 111.061 51.9831 112.031 38.4834 102.031C31.7023 97.0061 28.1871 90.0813 27.025 81.8477C23.9816 60.2388 39.6711 31.7453 62.9602 22.7809C70.4247 19.9079 77.9083 19.6538 85.2032 23.1751C95.1183 27.9642 98.6838 37.3581 97.8729 47.65C97.0588 57.9866 91.8402 65.1303 82.4084 69.2685C79.5563 70.5197 76.771 71.9245 73.9443 73.2359C65.1781 77.3108 57.3808 82.2445 56.5419 93.2557C48.1192 90.3943 46.1385 78.8602 52.4313 69.5834C49.0678 66.1927 47.7195 62.1805 49.8258 57.5245C51.1461 54.6074 53.1198 52.313 56.4507 51.0951C56.5419 51.7716 56.6483 52.185 56.6439 52.5933C56.5578 57.9585 58.5806 60.4769 63.9503 60.9178C71.8011 61.5642 79.0985 59.6321 85.761 55.3844C86.4419 54.9505 87.0628 54.3879 87.6276 53.8023C89.5593 51.8023 89.6645 50.2945 88.0019 48.0775C83.9525 42.6765 78.2194 40.8308 71.8871 41.2717C60.261 42.0794 50.5366 47.0529 42.921 55.9725C40.6267 58.6637 38.9596 61.7421 38.4203 65.3031C37.6464 70.4141 39.2898 74.7393 43.0141 78.2023C44.4134 79.5021 45.0643 80.8 45.1644 82.7745C45.4921 89.1853 51.4412 96.0442 57.676 97.5309C58.0132 97.6129 58.39 97.5431 58.622 97.5431C59.2799 94.6279 59.8728 91.8132 60.5562 89.0221C60.9655 87.3415 61.7655 86.6765 63.7667 87.1898C71.0526 89.0592 78.0753 87.881 84.1686 83.6122C89.1876 80.0973 93.7578 75.9034 98.3077 71.7658C103.631 66.9255 108.724 61.8305 113.89 56.8173C114.278 56.4391 114.708 55.8445 114.704 55.3543C114.692 54.2733 114.725 53.1821 114.739 52.0973V50.1287C114.785 47.3306 114.841 44.53 114.739 41.7549V40.7373C114.739 37.2717 114.139 33.9457 113.037 30.8609C111.821 27.1949 109.916 23.9328 107.462 21.1744C102.589 16.0167 95.6971 12.8 88.0567 12.8H39.5429C32.343 12.8 25.808 15.6564 21.0006 20.3021C19.331 22.0314 17.8775 23.9885 16.6682 26.1511C16.6637 26.1581 16.6586 26.1652 16.6541 26.1722C15.0597 28.9658 13.9084 32.0436 13.3022 35.3159C13.2786 35.4208 13.2601 35.5258 13.2416 35.6308C13.225 35.7268 13.2091 35.8221 13.1925 35.9181C13.174 36.0372 13.153 36.1562 13.137 36.2752C13.1275 36.3361 13.1186 36.3943 13.1115 36.4551C12.9044 37.8528 12.7998 39.2833 12.7998 40.7373V87.2788C12.7998 90.1191 13.2021 92.866 13.955 95.4631C13.9715 95.5239 13.99 95.5847 14.0066 95.6455C14.7875 98.3783 16.0032 100.971 17.5721 103.34C17.6467 103.454 17.7239 103.569 17.7978 103.683C18.9625 105.409 20.3051 107.004 21.8 108.44C21.8019 108.442 21.8032 108.443 21.8045 108.444C26.5252 112.648 32.737 115.2 39.5429 115.2H88.0567C94.4903 115.2 100.394 112.919 105.007 109.119C107.643 106.751 109.848 103.91 111.489 100.728C111.524 100.661 111.558 100.593 111.593 100.523C111.781 100.15 111.963 99.7741 112.135 99.3914C112.193 99.2628 112.251 99.1367 112.307 99.0087C113.376 96.5908 114.155 93.9789 114.599 91.2065C114.646 90.9217 114.683 90.6349 114.711 90.3476C114.762 89.8266 114.786 89.3005 114.795 88.7719C114.797 88.6861 114.798 88.601 114.799 88.5153V88.4775C114.799 88.4564 114.799 88.4352 114.799 88.4148C114.8 88.3578 114.8 88.3002 114.8 88.2426C114.8 87.1802 114.751 86.1108 114.739 85.0497Z" fill="#F1F5F9"/>
</svg>
