<svg width="104" height="104" viewBox="0 0 104 104" fill="none" xmlns="http://www.w3.org/2000/svg">
<mask id="mask0_2510_7110" style="mask-type:luminance" maskUnits="userSpaceOnUse" x="0" y="0" width="104" height="104">
<path d="M30.7951 1.1546C25.3474 1.41173 21.6265 2.28432 18.3751 3.55836C15.0092 4.87052 12.156 6.62902 9.31764 9.47899C6.47595 12.3306 4.7308 15.1889 3.42862 18.5582C2.16785 21.8179 1.31351 25.5405 1.07294 30.9916C0.834094 36.4528 0.779321 38.1946 0.805945 52.0979C0.832466 65.9996 0.893824 67.7447 1.15425 73.2075C1.41466 78.6537 2.284 82.3729 3.55803 85.6261C4.87185 88.992 6.62854 91.8436 9.48015 94.6837C12.3301 97.5237 15.1901 99.2672 18.5609 100.571C21.8173 101.83 25.5415 102.688 30.9909 102.927C36.452 103.167 38.1954 103.22 52.0952 103.194C66.0016 103.167 67.7452 103.106 73.2062 102.847C78.654 102.587 82.3715 101.714 85.6263 100.443C88.9921 99.1262 91.8453 97.3727 94.6837 94.5211C97.522 91.6711 99.2672 88.8111 100.569 85.4403C101.83 82.1838 102.688 78.4596 102.925 73.0134C103.164 67.549 103.22 65.8038 103.194 51.9022C103.167 37.9989 103.104 36.257 102.845 30.7976C102.587 25.3464 101.714 21.6288 100.442 18.374C99.1263 15.0081 97.3712 12.1581 94.5212 9.31643C91.6712 6.47805 88.8113 4.72954 85.4405 3.43064C82.1824 2.16986 78.4599 1.31053 73.0104 1.07496C67.5493 0.832768 65.8059 0.779715 51.9011 0.806247C37.9997 0.832779 36.2563 0.892519 30.7951 1.1546ZM31.3924 93.7115C26.4008 93.4942 23.6902 92.6648 21.8837 91.9697C19.4916 91.044 17.7846 89.9342 15.988 88.1509C14.1948 86.3609 13.0816 84.6589 12.1477 82.2717C11.4459 80.4651 10.6016 77.7578 10.3677 72.7662C10.1139 67.3698 10.0558 65.7507 10.0309 52.0796C10.0044 38.412 10.0541 36.7928 10.2897 31.3915C10.5037 26.4031 11.3382 23.6892 12.0315 21.8843C12.9572 19.4888 14.0636 17.7851 15.8503 15.9885C17.6402 14.1919 19.3422 13.0821 21.731 12.1482C23.5359 11.4431 26.2432 10.6054 31.2331 10.3682C36.6328 10.1127 38.2502 10.0579 51.9177 10.0314C65.5885 10.0048 67.2076 10.053 72.609 10.2902C77.5972 10.5075 80.3111 11.3337 82.1144 12.032C84.5081 12.9577 86.2151 14.0609 88.0101 15.8508C89.8049 17.6408 90.9181 19.3395 91.852 21.7333C92.557 23.5332 93.3947 26.2439 93.6304 31.2322C93.8874 36.632 93.9455 38.251 93.9704 51.9188C93.9969 65.5898 93.9472 67.2088 93.7099 72.6069C93.4927 77.5986 92.6648 80.3109 91.9681 82.1191C91.0425 84.5096 89.936 86.2166 88.1477 88.0132C86.3595 89.8032 84.6575 90.9195 82.267 91.8535C80.4654 92.5569 77.7548 93.3963 72.7682 93.6336C67.3686 93.8873 65.7511 93.9454 52.0786 93.9703C38.4111 93.9969 36.7937 93.9454 31.3924 93.7115ZM73.1316 24.6314C73.1382 28.0223 75.8952 30.7677 79.286 30.7611C82.6783 30.7545 85.4239 27.999 85.4189 24.6082C85.4122 21.2174 82.6552 18.4703 79.2628 18.4769C75.8704 18.4835 73.1249 21.2406 73.1316 24.6314ZM25.7108 52.0498C25.7389 66.5702 37.5319 78.3152 52.0488 78.287C66.5673 78.2588 78.3188 66.469 78.2907 51.9486C78.2624 37.4332 66.4678 25.6815 51.9476 25.7097C37.4307 25.7379 25.6825 37.5328 25.7108 52.0498ZM34.9324 52.0316C34.9158 42.6073 42.5434 34.9515 51.9658 34.9349C61.39 34.9167 69.0473 42.541 69.0656 51.9669C69.0839 61.3928 61.4563 69.0469 52.0305 69.0652C42.6081 69.0834 34.9506 61.4575 34.9324 52.0316Z" fill="white"/>
</mask>
<g mask="url(#mask0_2510_7110)">
<mask id="mask1_2510_7110" style="mask-type:luminance" maskUnits="userSpaceOnUse" x="-4" y="-4" width="112" height="112">
<path d="M107.254 -3.20984H-3.33789V107.384H107.254V-3.20984Z" fill="white"/>
</mask>
<g mask="url(#mask1_2510_7110)">
<mask id="mask2_2510_7110" style="mask-type:luminance" maskUnits="userSpaceOnUse" x="-4" y="-4" width="112" height="112">
<path d="M107.766 -3.72192H-3.84961V107.896H107.766V-3.72192Z" fill="white"/>
</mask>
<g mask="url(#mask2_2510_7110)">
<mask id="mask3_2510_7110" style="mask-type:luminance" maskUnits="userSpaceOnUse" x="-4" y="-4" width="112" height="112">
<path d="M107.766 -3.72192H-3.84961V107.896H107.766V-3.72192Z" fill="white"/>
</mask>
<g mask="url(#mask3_2510_7110)">
<rect x="-3.88574" y="-3.7384" width="111.673" height="111.673" fill="#F1F5F9"/>
</g>
</g>
</g>
</g>
</svg>
