<svg width="128" height="128" viewBox="0 0 128 128" fill="none" xmlns="http://www.w3.org/2000/svg">
<path d="M62.8536 92.9126V115.2C62.4836 115.104 62.1163 114.965 61.7771 114.779L43.4219 104.163L62.8536 92.9126Z" fill="#F1F5F9"/>
<path d="M84.7526 104.163L66.5542 114.69L66.4 114.779C66.0576 114.965 65.6966 115.104 65.3203 115.2V92.9126L84.7526 104.163Z" fill="#F1F5F9"/>
<path d="M85.9864 79.5289V102.014L67.1806 91.1321L66.5547 90.7731L85.9864 79.5289Z" fill="#F1F5F9"/>
<path d="M107.707 90.6649C107.396 90.9862 107.041 91.2614 106.652 91.4809L88.4541 102.02V79.5289L107.707 90.6649Z" fill="#F1F5F9"/>
<path d="M109.12 66.1427V87.2025C109.12 87.6505 109.061 88.096 108.941 88.5229L89.6875 77.3869L109.119 66.1427H109.12Z" fill="#F1F5F9"/>
<path d="M107.886 64L88.4541 75.2442V52.7559L107.886 64Z" fill="#F1F5F9"/>
<path d="M109.12 40.7942V61.8572L89.6885 50.6099L108.942 39.4739C109.062 39.9008 109.121 40.3456 109.121 40.7942H109.12Z" fill="#F1F5F9"/>
<path d="M107.707 37.3318L88.4541 48.4678V25.9795L106.656 36.5094C107.041 36.7379 107.396 37.0105 107.707 37.3318Z" fill="#F1F5F9"/>
<path d="M85.9864 25.9795V48.4678L66.5547 37.2237L85.9864 25.9795Z" fill="#F1F5F9"/>
<path d="M84.7526 23.84L65.3203 35.081V12.8C65.7395 12.9114 66.144 13.072 66.5203 13.2852L84.7526 23.84Z" fill="#F1F5F9"/>
<path d="M62.8536 12.8V35.081L43.4219 23.84L61.6075 13.3165L61.6536 13.2858C62.0331 13.0727 62.4369 12.9114 62.8536 12.8007V12.8Z" fill="#F1F5F9"/>
<path d="M61.6198 37.2237L42.1875 48.4678V25.9795L61.6198 37.2237Z" fill="#F1F5F9"/>
<path d="M39.7206 25.9795V48.4678L20.4707 37.3318C20.7824 37.0105 21.1369 36.7353 21.5222 36.5094L39.7206 25.9795Z" fill="#F1F5F9"/>
<path d="M38.4856 50.7635L18.8799 61.703L19.2101 40.6426C19.2172 40.1946 19.2856 39.7504 19.413 39.3254L38.4856 50.7635Z" fill="#F1F5F9"/>
<path d="M39.7204 52.7559V75.2442L20.2881 64L39.7204 52.7559Z" fill="#F1F5F9"/>
<path d="M38.4864 77.3869L19.2364 88.5229C19.1161 88.096 19.0547 87.6512 19.0547 87.2025V66.1427L38.487 77.3869H38.4864Z" fill="#F1F5F9"/>
<path d="M39.7206 79.5289V102.02L21.5222 91.4809C21.1369 91.2614 20.7817 90.9862 20.4707 90.6649L27.8269 86.4076L39.7206 79.5289Z" fill="#F1F5F9"/>
<path d="M61.6198 90.7731L60.9933 91.1321L42.1875 102.014V79.5289L61.6198 90.7731Z" fill="#F1F5F9"/>
<path d="M62.8531 64.7143V88.6311L43.4214 77.3869L42.1875 76.6727V52.7559L62.8531 64.7143Z" fill="#F1F5F9"/>
<path d="M85.9869 52.7559V76.6727L84.753 77.3869L65.3213 88.6311V64.7143L85.9869 52.7559Z" fill="#F1F5F9"/>
<path d="M84.7531 50.6105L64.0875 62.5715L43.4219 50.6105L62.8536 39.3663L64.0875 38.6521L65.3214 39.3663L84.7531 50.6105Z" fill="#F1F5F9"/>
</svg>
