<svg width="128" height="128" viewBox="0 0 128 128" fill="none" xmlns="http://www.w3.org/2000/svg">
<path d="M63.9998 12.8C35.7227 12.8 12.7998 35.7229 12.7998 64C12.7998 92.2772 35.7227 115.2 63.9998 115.2C92.2769 115.2 115.2 92.2772 115.2 64C115.2 35.7229 92.2769 12.8 63.9998 12.8ZM86.3774 48.482C85.6676 55.9367 82.5982 74.0276 81.036 82.377C80.3748 85.9105 79.0737 87.0951 77.8136 87.2103C75.0763 87.4625 72.9969 85.401 70.3454 83.6628C66.1963 80.9428 63.852 79.2493 59.8238 76.5953C55.1691 73.5277 58.1867 71.842 60.8395 69.0868C61.5339 68.3661 73.5966 57.3933 73.8302 56.3981C73.8596 56.274 73.8865 55.81 73.6113 55.5648C73.3355 55.3204 72.9285 55.4042 72.6347 55.4708C72.2187 55.5648 65.5902 59.9463 52.7486 68.6144C50.867 69.9066 49.1627 70.5364 47.6363 70.5031C45.9524 70.4666 42.7147 69.5514 40.3076 68.7687C37.3553 67.8087 35.0084 67.3018 35.2126 65.6717C35.3188 64.8231 36.4881 63.9546 38.7198 63.0669C52.4638 57.0791 61.6286 53.1309 66.2142 51.2237C79.3067 45.778 82.0273 44.8321 83.8008 44.8007C84.1905 44.7943 85.0628 44.8909 85.628 45.3492C86.1048 45.7364 86.236 46.2593 86.2993 46.626C86.3621 46.9927 86.4401 47.8292 86.3781 48.482H86.3774Z" fill="#F1F5F9"/>
</svg>
