<svg width="552" height="552" viewBox="0 0 552 552" fill="none" xmlns="http://www.w3.org/2000/svg">
<path d="M33.9195 329.91C33.9195 329.91 33.8595 329.96 33.8595 329.97C45.6895 358.92 70.7495 375.51 94.7495 393.75C121.04 413.72 150.37 427.88 177.46 446.94C194.85 459.18 209.62 474.26 226.37 488.18C243.96 502.8 260.88 513.41 283.2 523.03C321.94 539.73 374.57 543.93 414.67 531.57C464.64 516.17 503.229 477.69 516.909 429.71C530.589 381.74 516.569 339.51 489.049 301.21C471.419 276.67 445.599 257.95 427.71 234.4C404.639 204.04 393.65 169.5 396.94 132.22C399.59 102.25 414.59 75.25 397 46.88C380.71 20.61 347.26 13.8 317.12 13.3C264.59 12.43 208.59 32.6 171.3 68.7C145.28 93.9 128.96 127.84 114.95 160.75C102.66 189.61 87.4995 217.35 68.0895 242.06C50.0795 264.97 25.8595 286.07 31.0495 318.36C31.6795 322.27 32.6795 326.13 33.9095 329.89L33.9195 329.91Z" fill="#FF5400"/>
<g filter="url(#filter0_b_2533_18854)">
<path d="M33.3105 388.35C24.7605 414.89 31.9905 435.6 52.5705 458.4C73.1505 481.19 102.08 496.65 134.26 499.18C174.1 502.32 212.65 488.63 247.17 468.95C281.69 449.27 313.891 421.83 346.5 400.79C383.91 376.63 427.01 359.33 458.25 329.47C491.641 297.56 506.28 251.13 496.4 207.82C486.51 164.51 451.73 131.27 410.641 120.85C371.861 111.01 333.461 124.74 295.921 115.56C263.23 107.56 243.45 85.26 209.7 76.26C178.4 67.92 144.53 75.66 114.99 95.87C85.4505 116.08 57.7105 153.8 51.8105 189.4C45.6005 226.88 58.2705 238.31 63.0405 275.11C67.8005 311.91 45.7105 349.9 33.3205 388.36L33.3105 388.35Z" fill="url(#paint0_linear_2533_18854)"/>
</g>
<g filter="url(#filter1_b_2533_18854)">
<path fill-rule="evenodd" clip-rule="evenodd" d="M114.426 95.0448C144.156 74.7047 178.323 66.8645 209.958 75.2939L209.958 75.2939C226.813 79.7886 240.206 87.5723 253.32 95.1934L253.71 95.4205C266.971 103.126 279.972 110.628 296.158 114.589C314.488 119.071 333.043 118.047 351.924 117.005L352.76 116.959C371.882 115.905 391.326 114.918 410.886 119.881C452.32 130.388 487.397 163.901 497.375 207.598C507.338 251.269 492.572 298.053 458.941 330.193C443.231 345.21 424.56 357.048 405.186 368.136C399.103 371.617 392.957 375.021 386.81 378.425C373.341 385.885 359.867 393.348 347.043 401.63L347.043 401.63C333.545 410.339 320.119 420.145 306.542 430.062C303.748 432.103 300.948 434.148 298.14 436.189C281.696 448.141 264.978 459.949 247.666 469.819C213.055 489.551 174.3 503.339 134.182 500.177C101.729 497.626 72.567 482.036 51.8283 459.07L52.5705 458.4L51.8282 459.07C41.4819 447.608 34.4257 436.6 31.0568 425.058C27.682 413.495 28.0311 401.477 32.3587 388.044L32.8599 386.488L32.8739 386.502C35.8752 377.375 39.3915 368.282 42.9295 359.25C43.2664 358.39 43.6035 357.53 43.9404 356.671C47.3452 347.99 50.727 339.367 53.6657 330.789C60.127 311.927 64.3988 293.407 62.0488 275.238C60.3226 261.922 57.5681 251.989 55.0352 242.856C54.0822 239.42 53.1606 236.097 52.337 232.749C49.323 220.499 47.693 208.133 50.8239 189.237L51.8105 189.4L50.824 189.237C56.7772 153.315 84.7088 115.376 114.426 95.0448ZM33.8233 390.061C30.0222 402.595 29.8454 413.769 32.9767 424.497C36.2303 435.645 43.0791 446.392 53.3128 457.73C73.734 480.344 102.432 495.675 134.339 498.183C173.901 501.301 212.246 487.71 246.675 468.081C263.883 458.271 280.525 446.52 296.964 434.571C299.763 432.536 302.557 430.496 305.347 428.458C318.925 418.54 332.407 408.693 345.958 399.95C358.839 391.631 372.414 384.112 385.913 376.635C392.046 373.239 398.163 369.851 404.193 366.4C423.531 355.332 442.03 343.591 457.56 328.747C490.709 297.067 505.223 250.991 495.426 208.043C485.624 165.119 451.141 132.152 410.395 121.819L410.641 120.85L410.395 121.819C391.175 116.943 372.029 117.9 352.871 118.956L351.908 119.009C333.118 120.047 314.305 121.085 295.683 116.532L295.921 115.56L295.683 116.531C279.179 112.493 265.945 104.844 252.706 97.1498L252.391 96.9669C239.234 89.3206 226.038 81.6519 209.443 77.2264C178.478 68.9758 144.905 76.6156 115.555 96.6955C86.1922 116.784 58.6438 154.285 52.797 189.564C49.718 208.147 51.3179 220.236 54.279 232.271C55.0815 235.533 55.9892 238.806 56.9339 242.212C59.4763 251.38 62.2864 261.513 64.0322 274.982L64.0322 274.982C66.4422 293.613 62.049 312.488 55.5578 331.437C52.6041 340.059 49.2062 348.723 45.8042 357.397C45.4666 358.258 45.129 359.118 44.7918 359.979C41.0525 369.525 37.3593 379.085 34.2723 388.667L33.8233 390.061Z" fill="white"/>
</g>
<path d="M313.96 50.6499H213.77" stroke="#FF7633" stroke-miterlimit="10" stroke-linecap="round"/>
<path d="M302.7 43.53H244.3" stroke="#FF7633" stroke-miterlimit="10" stroke-linecap="round"/>
<path d="M369.29 503.18H266.78" stroke="#FF7633" stroke-miterlimit="10" stroke-linecap="round"/>
<path d="M357.43 496.07H257.25" stroke="#FF7633" stroke-miterlimit="10" stroke-linecap="round"/>
<path d="M375.97 479.38L367.09 444.81L391.64 452.82L395.13 474.07L375.97 479.39V479.38Z" fill="#D0795E"/>
<path d="M379.1 502.03C379.1 502.03 381.86 505.49 391.92 502.93C401.98 500.37 427.49 490.75 427.49 490.75C427.49 490.75 436.92 487.24 438.76 482.94L438.2 481.02L422.19 481.71L408.39 486.45L383.97 494.32L377.77 497.56L379.11 502.03H379.1Z" fill="#020916"/>
<path d="M395.12 474.07L375.98 479.38C375.84 479.41 375.98 482.06 375.98 482.23C375.99 485.61 376.07 488.98 376.32 492.34C376.45 494.17 376.57 496.02 377.04 497.8C377.27 498.69 377.59 499.55 378.03 500.37C378.43 501.12 378.89 501.95 379.67 502.42C379.25 502.06 379.22 501.37 379.24 500.88C379.25 500.26 379.35 499.71 379.87 499.27C380.29 498.93 380.83 498.74 381.36 498.56C385.2 497.25 389.01 495.9 392.84 494.56C399.86 492.07 406.88 489.6 413.9 487.12C417.49 485.85 421.07 484.58 424.66 483.32C424.66 483.32 437.44 479.53 438.77 482.93C438.77 482.93 441.42 477.15 420.28 477.45C399.14 477.75 395.14 474.06 395.14 474.06H395.13L395.12 474.07Z" fill="white"/>
<path d="M377.53 499.37C377.53 499.37 375.9 496.84 379.92 495.57C383.95 494.3 426.88 479.78 426.88 479.78C426.88 479.78 431.97 477.76 437.15 479.89" stroke="#020916" stroke-width="0.68" stroke-miterlimit="10"/>
<path d="M400.31 476C400.31 476 396.47 475.85 395.94 479.16" stroke="#020916" stroke-width="0.68" stroke-miterlimit="10"/>
<path d="M405.28 476.85C405.28 476.85 401.44 476.7 400.91 480.01" stroke="#020916" stroke-width="0.68" stroke-miterlimit="10"/>
<path d="M409.83 477.34C409.83 477.34 405.99 477.19 405.46 480.5" stroke="#020916" stroke-width="0.68" stroke-miterlimit="10"/>
<path d="M376.08 488.63C376.08 488.63 384.89 484.44 387.13 493.2" stroke="#020916" stroke-width="0.68" stroke-miterlimit="10"/>
<path d="M84.5195 390C84.5195 390 80.0195 390.22 76.8995 399.1C73.7795 407.99 68.5995 432.18 68.5995 432.18C68.5995 432.18 66.4795 442.7 69.4295 444.77L74.2295 446.29L88.7495 391.06L84.4995 390H84.5095H84.5195Z" fill="white"/>
<path d="M107.92 399.15C104.96 397.36 101.97 395.62 98.8897 394.02C97.2197 393.14 95.5497 392.25 93.7297 391.64C92.8297 391.34 91.8997 391.12 90.9597 391.01C90.3097 390.93 89.6097 390.86 88.9497 390.97H88.9297C88.9297 390.97 84.4397 391.19 81.3097 400.07C78.1797 408.95 73.0097 433.16 73.0097 433.16C73.0097 433.16 70.8897 443.67 73.8397 445.75C73.8397 445.75 77.4897 450.82 88.4897 434.85C99.4897 418.89 104.85 417.86 104.85 417.86L110.4 400.71C110.45 400.59 108.06 399.28 107.91 399.18V399.15H107.92Z" fill="white"/>
<path d="M82.5801 397.01C82.5801 397.01 91.1601 401.68 96.6601 392.88" stroke="#020916" stroke-width="0.66" stroke-miterlimit="10"/>
<path d="M95.2999 428.74C95.2999 428.74 90.9699 429.03 89.4199 422.77" stroke="#020916" stroke-width="0.66" stroke-miterlimit="10"/>
<path d="M91.9503 433.05C91.9503 433.05 87.6203 433.34 86.0703 427.08" stroke="#020916" stroke-width="0.66" stroke-miterlimit="10"/>
<path d="M98.7198 424.74C98.7198 424.74 94.3898 425.03 92.8398 418.77" stroke="#020916" stroke-width="0.66" stroke-miterlimit="10"/>
<path d="M88.9297 390.96C88.9297 390.96 84.4297 391.18 81.3097 400.06C78.1897 408.95 73.0097 433.15 73.0097 433.15C73.0097 433.15 70.8897 443.66 73.8397 445.74" stroke="#020916" stroke-width="0.66" stroke-miterlimit="10"/>
<path d="M127.28 411.85L102.92 418.11C102.92 418.11 94.1103 408.18 103.88 397.36L123.94 388.79" fill="#D0795E"/>
<path d="M267.32 255.3C282.48 279.46 297.64 303.61 312.8 327.75C314.91 331.11 317.2 334.43 319.16 337.87C324.08 346.53 311.18 354.78 316.27 364.89C317.87 368.06 320.87 370.6 321.9 373.96C324.49 382.38 313.72 390.36 315.47 398.96C316.71 405.08 323.9 408.99 325.28 415.08C326.54 420.61 322.67 425.91 321.05 431.37C318.7 439.25 321.06 447.62 323.76 455.4C325.08 459.2 327.66 469.27 331.93 471.21C333.71 472.02 335.23 471.31 337.35 470.79C344.34 469.05 351.34 467.32 358.34 465.57C370 462.67 381.64 459.79 393.3 456.89L371.08 323.7L314.95 195.05L283.8 196L267.33 255.27L267.31 255.29L267.32 255.3Z" fill="#390099"/>
<path d="M209.88 326.41C206.78 328.42 204.61 331.6 201.21 333.13C192.69 336.96 182.32 328.54 173.45 331.63C167.15 333.83 164.24 341.04 157.98 343.37C151.78 345.68 145.8 342.32 139.59 342.37C134.05 342.42 129.29 344.97 124.18 346.54C121.34 347.41 118.32 347.74 115.33 347.74C114.48 347.74 113.6 347.73 112.88 348.12C112.39 348.39 112.04 348.83 111.72 349.27C107.71 354.86 108.6 362.19 109.84 368.8C112.66 383.77 115.33 399.99 125.31 412.55L265.7 368.65C260.75 352.66 239.09 342.36 236.74 325.64C228.73 328.56 218.84 320.64 209.87 326.43V326.41H209.88Z" fill="#390099"/>
<path d="M301.33 196.02L235.95 180.72C225.6 235.44 220.16 298.92 219.94 326.86C219.9 330.76 249.33 361.74 265.69 368.65C273.06 365.61 278.05 359.11 278.72 351.68L301.33 196.03V196.02Z" fill="#390099"/>
<path d="M287.95 288.17L293.4 230.39L298.83 228.66" stroke="#020916" stroke-width="0.7" stroke-miterlimit="10"/>
<path d="M237.25 215.51C237.25 215.51 251.87 219.41 254.91 190.07" stroke="#020916" stroke-width="0.7" stroke-miterlimit="10"/>
<path d="M239.51 215.66C239.51 215.66 226.92 309.35 230.74 332.84C225.32 332.17 222.62 333.56 219.03 337.38C215.44 341.2 211.71 345.56 206.32 346.49C200.9 347.43 195.39 344.55 189.93 345.25C184.51 345.95 180.4 349.95 176.58 353.57C172.77 357.19 168.18 360.93 162.71 360.81C159.48 360.74 156.49 359.32 153.32 358.77C141.05 356.64 134.26 367.69 121.89 366.17" stroke="#020916" stroke-width="0.7" stroke-miterlimit="10"/>
<path d="M121.21 347.24C121.21 347.24 117.09 371.95 135.36 409.4" stroke="#020916" stroke-width="0.7" stroke-miterlimit="10"/>
<path d="M291.09 254.83C291.09 254.83 333.87 319.69 337.55 334.86C339.79 344.11 331.99 353.37 335.35 362.33C336.65 365.79 339.72 368.53 340.8 372.05C343.12 379.68 335.37 387.52 337.29 395.25C338.29 399.25 341.75 402.44 342.77 406.45C343.98 411.2 341.54 415.99 340.09 420.69C336.04 433.86 338.62 444.31 343.45 457.46" stroke="#020916" stroke-width="0.7" stroke-miterlimit="10"/>
<path d="M325.57 460.94L391.77 445.2" stroke="#020916" stroke-width="0.7" stroke-miterlimit="10"/>
<path d="M325.65 342.72C325.65 342.72 339.34 345.84 348.33 334.3" stroke="#020916" stroke-width="0.7" stroke-miterlimit="10"/>
<path d="M223.23 327.89C223.23 327.89 232.74 339.4 245.33 337.47" stroke="#020916" stroke-width="0.7" stroke-miterlimit="10"/>
<path d="M306.6 193.9C308.18 193.7 331.58 200.29 340.26 205.44L345.86 200.06L351.06 188.98C351.06 188.98 352.17 176.56 352.16 176.2C352.15 175.84 347.1 162.28 347.1 162.28L333.13 128.3L327.01 135.58L306.59 193.88V193.9H306.6Z" fill="#9E0059"/>
<path d="M327.47 76.1299C327.38 76.2199 324.99 73.4599 324.87 73.2999C323.01 70.9699 321.52 68.3699 320.62 65.5999C318.37 58.7199 320.69 51.0699 326.08 45.9599C330.05 42.2099 341.23 36.3199 344.46 43.8799L344.07 61.8599C344.07 61.8599 327.49 76.1199 327.47 76.1299Z" fill="#020916"/>
<path d="M319.82 91.0599L329.63 71.8599C329.63 71.8599 323.98 62.9799 331.03 60.7199C333.8 60.3299 333.8 65.8499 333.8 65.8499L342.6 52.9299C342.6 52.9299 360.2 55.2699 358.01 63.0799C356 70.2699 355.77 73.7599 350.93 81.3599C344.38 90.4099 337.7 85.8599 337.7 85.8599L335.53 94.6099L339.54 96.5799L340.29 108.05L333.45 112.54L322.49 108.43L313.19 95.6099L315.87 90.2799L319.82 91.0499H319.81L319.82 91.0599Z" fill="#D0795E"/>
<path d="M337.71 85.8699C333.2 83.9499 332.49 78.9099 332.49 78.9099C332.49 78.9099 330.71 87.2799 336.47 90.8599L337.72 85.8699H337.71Z" fill="#AC553A"/>
<path d="M330.9 68.9201C330.9 68.9201 331.9 63.3301 329.2 63.5201" stroke="#020916" stroke-width="0.61" stroke-miterlimit="10"/>
<path d="M347.77 70.6001C347.49 71.6101 347.23 72.6001 347.43 73.6401C347.57 74.3501 348.15 75.0401 348.11 75.8001C348.05 76.8201 346.76 77.2401 345.88 76.7401" stroke="#020916" stroke-width="0.7" stroke-miterlimit="10"/>
<path d="M339.41 77.9201C338.83 77.3001 338.14 77.0801 337.36 77.0001C337.35 76.8701 337.34 76.7401 337.33 76.6001C337.33 76.1901 337.43 75.7001 337.86 75.5601C338.14 75.4601 338.46 75.5601 338.69 75.7201C338.93 75.8901 339.09 76.1201 339.25 76.3501C339.57 76.7601 339.92 77.1501 340.31 77.5101C340.65 77.8201 341.03 78.1301 341.41 78.3901C341.61 78.5201 341.81 78.6501 342.01 78.7701C342.2 78.8801 342.42 78.9901 342.57 79.1501C342.88 79.4601 342.5 79.8401 342.19 80.0201C341.83 80.2301 341.39 80.3001 340.97 80.2801C340.7 80.2801 340.44 80.2301 340.18 80.1601C340.37 79.3701 339.96 78.5201 339.41 77.9201Z" fill="#020916"/>
<path d="M339.4 77.92C339.95 78.52 340.36 79.36 340.18 80.16C339.49 79.99 338.84 79.62 338.36 79.12C337.8 78.53 337.46 77.79 337.35 77C338.14 77.09 338.83 77.3 339.4 77.92Z" fill="#F04438"/>
<path d="M344.03 68.8701C343.85 69.5101 343.27 69.9201 342.73 69.7901C342.19 69.6601 341.88 69.0401 342.06 68.4001C342.24 67.7601 342.82 67.3501 343.36 67.4801C343.9 67.6101 344.21 68.2301 344.03 68.8701Z" fill="#020916"/>
<path d="M344.67 66.21C344.85 66.21 345.07 66.21 345.17 66.08C345.23 66 345.25 65.91 345.23 65.81C345.17 65.47 344.81 65.28 344.46 65.16C343.26 64.75 341.91 64.7 340.69 65.05C340.35 65.15 339.81 65.33 339.77 65.72C339.73 66.03 340.13 66.13 340.4 66.11C341.3 66.01 342.2 66.02 343.1 66.09C343.62 66.13 344.12 66.18 344.64 66.21H344.66H344.67Z" fill="#020916"/>
<path d="M352.8 71.02C352.62 71.66 352.04 72.07 351.5 71.94C350.96 71.81 350.65 71.19 350.83 70.55C351.01 69.91 351.59 69.5 352.13 69.63C352.67 69.76 352.98 70.38 352.8 71.02Z" fill="#020916"/>
<path d="M350.83 67.56C350.67 67.48 350.49 67.38 350.47 67.21C350.46 67.11 350.51 67.01 350.56 66.95C350.79 66.69 351.23 66.7 351.58 66.77C352.84 66.99 354.01 67.59 354.87 68.47C355.1 68.71 355.46 69.13 355.28 69.48C355.13 69.76 354.73 69.66 354.52 69.51C353.8 68.99 353.04 68.58 352.22 68.21C351.76 68 351.29 67.8 350.84 67.57L350.83 67.56Z" fill="#020916"/>
<path d="M333.8 65.85C333.8 65.85 346.46 61.63 342.57 52.25L333.8 65.85Z" fill="#020916"/>
<path d="M343.3 44.26C342.19 48.5 342.62 52.93 342.62 52.93C342.62 52.93 343.65 64.78 369.58 64.73C369.58 64.73 363.65 58.47 363.21 55.01C363.21 55.01 360.5 38.09 343.3 44.28V44.26Z" fill="#020916"/>
<path d="M343 55.1799C343 55.1799 346.92 66.6499 367.84 67.1699" stroke="#020916" stroke-width="0.7" stroke-miterlimit="10"/>
<path d="M260.49 183.71C264.22 187.18 268.57 190.1 273.28 192.32C275.67 193.45 278.21 194.4 280.89 194.66C285.66 195.12 290.39 194.96 295.16 195.32C299.9 195.68 304.14 196.48 308.67 197.84C316.03 200.05 324.38 199.32 331.15 195.83C331.15 195.83 326.29 152.98 339.56 96.57L335.55 94.6C335.55 94.6 327.12 118.61 320.24 90.26L304.75 92.48L260.51 183.67V183.7L260.49 183.71Z" fill="white"/>
<path d="M318.03 90.3401C318.03 90.3401 320.44 107.16 327.38 106.92C334.33 106.68 336.97 95.3201 336.97 95.3201" stroke="#020916" stroke-width="0.7" stroke-miterlimit="10"/>
<path d="M326.13 148.21C326.13 148.21 307.43 169.49 280.06 149.62" stroke="#020916" stroke-width="0.7" stroke-miterlimit="10"/>
<path d="M430.55 218.86L433.84 223.8L417.56 231.24L414.1 227.31L430.56 218.86H430.55Z" fill="#9E0059"/>
<path d="M428.17 235.87C431.51 236.96 431.84 238.7 436.22 237.65C437.5 239.91 440.35 241.82 443 242.07C443.52 242.12 443.93 241.6 443.77 241.11C442.85 238.27 441.38 236.15 439.49 233.53C437.39 230.61 435.4 226.93 433.67 223.63C428.18 225.91 422.91 228.77 417.52 231.28C418.96 236.83 420.97 242.09 426.37 244.63C426.82 242.57 427.84 237.53 428.12 236.15C428.35 235 428.11 235.85 428.18 235.87H428.17Z" fill="#D0795E"/>
<path d="M423.25 244.65C423.03 244.66 422.8 244.68 422.58 244.72C422.2 244.79 421.77 244.95 421.72 245.29C421.7 245.52 421.85 245.72 422.01 245.9C423.06 247.02 424.51 247.95 425.76 248.89C427.1 249.91 428.52 250.84 429.99 251.69C430.48 251.97 431.01 252.25 431.59 252.24C432.17 252.24 432.78 251.83 432.75 251.3C433.62 251.83 434.67 252.21 435.7 252C436.71 251.77 436.51 251.05 436.17 250.13C436.74 250.72 438.76 250.62 439.54 250.3C440.32 249.99 439.99 249.29 439.92 248.51C440.56 249.18 442.75 248.68 443.18 247.87C443.61 247.06 443.4 246.09 443.11 245.22C441.34 240.1 436.55 236.08 431 234.47C430.59 234.35 430.15 234.24 429.72 234.22C428.68 234.19 427.68 234.72 427.02 235.46C426.36 236.2 425.98 237.13 425.74 238.06C425.4 239.4 425.29 240.77 425.45 242.14C425.52 242.77 425.87 245.03 426.47 245.34C425.51 244.83 424.38 244.58 423.28 244.63H423.27L423.25 244.65Z" fill="#D0795E"/>
<path d="M426.29 238.69C426.29 238.69 431.94 241.14 435.36 237.51C435.36 237.51 440.5 242.89 443.14 242.1C443.33 242.04 443.6 242.02 443.67 241.83C444.37 239.81 441.16 236.26 441.16 236.26" stroke="#020916" stroke-width="0.7" stroke-miterlimit="10"/>
<path d="M435.95 240.65C435.46 240.01 434.75 239.52 433.97 239.25C433.63 239.13 433.23 239.07 432.91 239.24C432.51 239.46 432.44 239.98 432.5 240.4C432.63 241.37 433.17 242.23 433.76 243.04C435.23 245.04 437.08 246.79 439.19 248.21" stroke="#020916" stroke-width="0.7" stroke-miterlimit="10"/>
<path d="M432.79 242.16C432.3 241.52 431.59 241.03 430.81 240.76C430.47 240.64 430.07 240.58 429.75 240.75C429.35 240.97 429.28 241.49 429.34 241.91C429.47 242.88 430.01 243.74 430.6 244.55C432.07 246.55 433.92 248.3 436.03 249.72" stroke="#020916" stroke-width="0.7" stroke-miterlimit="10"/>
<path d="M429.63 243.59C429.14 242.95 428.43 242.46 427.65 242.19C427.31 242.07 426.91 242.01 426.59 242.18C426.19 242.4 426.12 242.92 426.18 243.34C426.31 244.31 426.85 245.17 427.44 245.98C428.91 247.98 430.76 249.73 432.87 251.15" stroke="#020916" stroke-width="0.7" stroke-miterlimit="10"/>
<path d="M190.96 168.92L188.98 175.45L170.08 172.12L169.88 165.58L190.96 168.92Z" fill="#9E0059"/>
<path d="M170.08 172.12C170.08 172.12 163.91 178.22 167.42 189.69L165.15 195.59C165.15 195.59 166.84 200.47 170.24 196.78C170.24 196.78 170.7 200.73 174.43 197.8C174.43 197.8 175.92 201.65 178.82 198.94C178.82 198.94 179.83 202.35 183.39 199.33C184.74 198.18 189.49 192.67 189.49 192.67L188.97 175.44L170.07 172.11L170.08 172.12Z" fill="#D0795E"/>
<path d="M170.24 196.78L173.71 191.47" stroke="#020916" stroke-width="0.7" stroke-miterlimit="10"/>
<path d="M174.57 197.96L178.06 192.65" stroke="#020916" stroke-width="0.7" stroke-miterlimit="10"/>
<path d="M178.9 199.12L182.37 193.81" stroke="#020916" stroke-width="0.7" stroke-miterlimit="10"/>
<path d="M320.27 86.5C320.27 86.5 300.26 177.43 266.79 201.21C266.79 201.21 226.54 186.79 218.9 169.36C218.9 169.36 226.26 166.73 229.56 159.44C230.92 156.45 232.49 153.19 235.61 151.68C236.88 151.07 238.33 150.65 239.24 149.63C240.79 147.88 240.02 145.29 240.48 143.08C241.09 140.17 243.8 138.05 246.56 136.54C249.32 135.02 252.37 133.79 254.49 131.57C260.16 125.62 256.79 115.61 261.72 109.12L320.27 86.51V86.5Z" fill="#020916"/>
<path d="M320.27 86.5L212.65 80.4C212.65 80.4 202.97 80.05 198.63 85.24C158.25 133.53 169.86 165.57 169.86 165.57L190.95 168.91L219.4 113.81L273.32 118.53L320.27 86.5Z" fill="#020916"/>
<path d="M336.91 93.45C336.91 93.45 326.11 121.56 335.51 142.57C344.74 163.19 358.15 188.38 340.25 205.44C340.25 205.44 352.84 198.5 353.43 183.03C354.02 167.57 343.45 147.39 347.97 135.59C353.6 120.91 351.77 104.39 351.77 104.39L336.89 93.45H336.9H336.91Z" fill="#020916"/>
<path d="M351.8 104.39C351.8 104.39 373.75 122.9 382.34 170.81C382.34 170.81 387.18 171.82 386.24 174.93C386.24 174.93 419.99 194.03 430.55 218.86L414.09 227.32C414.09 227.32 379.88 223.78 354.52 180.31L336.33 136.1L351.8 104.39Z" fill="#020916"/>
<path d="M242.93 175.27C242.93 175.27 266.52 182.79 275.73 156.65" stroke="white" stroke-width="0.7" stroke-miterlimit="10"/>
<path d="M345.38 129C344.98 143.91 352.97 154.28 353.3 173.79" stroke="white" stroke-width="0.7" stroke-miterlimit="10"/>
<path d="M219.28 110.25C219.28 110.25 221.19 108.75 218.97 101.83" stroke="white" stroke-width="0.7" stroke-miterlimit="10"/>
<path d="M380.37 174.05C380.37 174.05 372.82 175.65 371.81 180.71" stroke="white" stroke-width="0.7" stroke-miterlimit="10"/>
<path d="M432.667 386.645C434.033 380.185 440.107 376.115 446.373 377.437C452.363 378.701 456.64 384.477 455.18 391.396C453.813 397.857 447.654 401.984 441.469 400.675C435.274 399.367 431.31 393.105 432.677 386.645L432.667 386.645ZM472.241 384.989L484.294 387.541L438.684 427.294L426.692 424.767L472.232 384.999L472.241 384.989ZM446.781 389.624C447.109 388.093 446.083 386.69 444.482 386.358C442.879 386.015 441.517 386.917 441.117 388.434C440.713 390.021 441.738 391.414 443.34 391.756C444.942 392.089 446.448 391.226 446.781 389.634L446.781 389.624ZM455.85 420.817C457.216 414.357 463.29 410.287 469.556 411.609C475.812 412.932 479.823 418.649 478.363 425.568C476.996 432.029 470.837 436.156 464.652 434.847C458.458 433.539 454.493 427.277 455.86 420.817L455.85 420.817ZM469.964 423.796C470.292 422.265 469.266 420.862 467.664 420.52C466.062 420.187 464.699 421.079 464.299 422.596C463.895 424.173 464.92 425.576 466.523 425.918C468.125 426.251 469.62 425.389 469.964 423.796Z" stroke="white" stroke-width="2" stroke-miterlimit="10"/>
<path d="M92.35 262.75C89.9 256.72 92.65 250.05 98.53 247.69C104.16 245.43 110.87 247.8 113.48 254.26C115.93 260.29 113.14 267.06 107.33 269.39C101.51 271.72 94.79 268.78 92.34 262.75H92.35ZM123.99 239.63L135.31 235.09L119.77 292.7L108.51 297.22L123.99 239.65V239.63ZM105.61 257.42C105.03 255.98 103.41 255.42 101.91 256.02C100.41 256.62 99.78 258.11 100.3 259.57C100.85 261.09 102.46 261.67 103.96 261.06C105.46 260.46 106.22 258.92 105.62 257.43H105.61V257.42ZM130.31 277.96C127.86 271.93 130.61 265.26 136.49 262.89C142.12 260.63 148.83 263 151.44 269.46C153.89 275.49 151.1 282.26 145.29 284.59C139.47 286.92 132.75 283.98 130.3 277.95L130.31 277.96ZM143.56 272.63C142.97 271.19 141.37 270.63 139.86 271.23C138.36 271.83 137.73 273.32 138.24 274.78C138.79 276.3 140.4 276.88 141.9 276.27C143.41 275.67 144.16 274.13 143.56 272.64V272.63Z" stroke="white" stroke-width="2" stroke-miterlimit="10"/>
<defs>
<filter id="filter0_b_2533_18854" x="-20.2139" y="22.95" width="569.649" height="526.679" filterUnits="userSpaceOnUse" color-interpolation-filters="sRGB">
<feFlood flood-opacity="0" result="BackgroundImageFix"/>
<feGaussianBlur in="BackgroundImageFix" stdDeviation="25"/>
<feComposite in2="SourceAlpha" operator="in" result="effect1_backgroundBlur_2533_18854"/>
<feBlend mode="normal" in="SourceGraphic" in2="effect1_backgroundBlur_2533_18854" result="shape"/>
</filter>
<filter id="filter1_b_2533_18854" x="-21.2139" y="21.9497" width="571.649" height="528.679" filterUnits="userSpaceOnUse" color-interpolation-filters="sRGB">
<feFlood flood-opacity="0" result="BackgroundImageFix"/>
<feGaussianBlur in="BackgroundImageFix" stdDeviation="25"/>
<feComposite in2="SourceAlpha" operator="in" result="effect1_backgroundBlur_2533_18854"/>
<feBlend mode="normal" in="SourceGraphic" in2="effect1_backgroundBlur_2533_18854" result="shape"/>
</filter>
<linearGradient id="paint0_linear_2533_18854" x1="29.7861" y1="84.1295" x2="454.08" y2="531.468" gradientUnits="userSpaceOnUse">
<stop stop-color="white" stop-opacity="0.3"/>
<stop offset="1" stop-color="white" stop-opacity="0.4"/>
</linearGradient>
</defs>
</svg>
