<svg width="552" height="552" viewBox="0 0 552 552" fill="none" xmlns="http://www.w3.org/2000/svg">
<path d="M128.53 431.35C116.97 406.84 109.52 380.84 92.63 359.56C75.75 338.3 56.13 319.56 41.13 296.57C12.18 252.18 -0.100033 193.65 14.4 141.54C28.9 89.4301 72.26 46.5101 122.1 42.0301C185.65 36.3201 244.48 89.1501 308.03 83.4001C343.86 80.1601 376.49 58.4701 412.23 54.1701C468.15 47.4401 525.63 90.1901 540.22 149.36C554.81 208.53 524.72 276.87 473.22 301.54C448.58 313.34 419.12 316.87 400.78 338.32C383.83 358.14 381.47 387.44 373.24 413C355.97 466.67 307.74 506.82 255.64 510.89C226.94 513.14 197.92 504.33 173.71 487.6C154.09 474.05 139.41 454.19 128.83 431.89C128.74 431.7 128.65 431.52 128.57 431.33L128.53 431.35Z" fill="#FF5400"/>
<g filter="url(#filter0_b_2531_18206)">
<path d="M34.4403 378.96C44.9203 411.8 73.6303 440.5 108.04 442.59C133.7 444.15 157.93 431.41 179.59 417.56C201.25 403.72 222.69 388.06 247.8 382.57C281.16 375.28 315.28 387.01 348.56 394.64C383.71 402.7 416.53 401.99 448.32 383.85C476.61 367.71 492.28 320.72 497.09 290.59C502.73 255.31 497.25 218.33 481.61 186.21C471.35 165.15 455.76 145.36 433.97 136.75C402.99 124.51 366.24 137.09 335.5 124.26C319.07 117.4 306.3 104 295.15 90.1199C284 76.2299 273.8 61.3499 260.26 49.7999C214.05 10.3899 152.91 38.4699 127.45 86.5799C111.52 116.68 112.95 158.81 104.39 191.76C96.8103 220.96 78.9903 242.24 58.0603 264.6C41.2503 282.56 32.2303 295.05 29.5303 320.7C27.4803 340.2 28.4403 360.18 34.4303 378.95L34.4403 378.96Z" fill="url(#paint0_linear_2531_18206)"/>
</g>
<path fill-rule="evenodd" clip-rule="evenodd" d="M258.971 51.3309C236.453 32.1303 210.358 29.3687 186.717 37.2784C163.002 45.2101 141.734 63.8849 129.224 87.5278C121.44 102.255 117.848 120.016 115.149 138.405C114.474 142.995 113.856 147.624 113.239 152.252L113.173 152.742C111.354 166.368 109.54 179.965 106.338 192.282C98.6091 222.006 80.4683 243.605 59.5302 265.983C51.1399 274.943 44.8333 282.397 40.2672 290.74C35.7212 299.045 32.8531 308.323 31.5245 320.925C29.4948 340.227 30.4553 359.911 36.3426 378.356L36.39 378.504V378.514C46.7307 410.736 74.8446 438.577 108.161 440.602C133.121 442.121 156.869 429.722 178.511 415.888C181.011 414.29 183.51 412.663 186.019 411.029C186.428 410.764 186.836 410.498 187.245 410.232L187.317 410.184C206.005 398.008 225.276 385.453 247.377 380.623C264.405 376.904 281.57 378.054 298.553 381.045C309.605 382.993 320.671 385.747 331.609 388.469L331.931 388.55L333.016 388.818C338.381 390.149 343.71 391.47 349.003 392.685C383.839 400.67 416.101 399.918 447.324 382.102C460.934 374.346 471.703 359.013 479.691 341.623C487.657 324.289 492.734 305.188 495.122 290.272C500.7 255.405 495.281 218.843 479.821 187.088C469.662 166.233 454.371 146.949 433.243 138.61C418.311 132.722 401.958 132.72 385.151 132.73H384.651C367.815 132.74 350.54 132.703 334.735 126.113C317.811 119.041 304.789 105.31 293.6 91.3762L293.599 91.3751C291.064 88.2085 288.57 85.0032 286.099 81.8125C277.629 70.8787 269.29 60.1329 258.971 51.3309ZM433.977 136.75C455.769 145.351 471.358 165.147 481.619 186.212C497.259 218.337 502.74 255.315 497.097 290.588C494.686 305.652 489.563 324.932 481.509 342.458C473.457 359.987 462.466 375.775 448.316 383.839C416.519 401.982 383.701 402.69 348.557 394.635C343.246 393.415 337.901 392.09 332.539 390.761L331.449 390.491L331.448 390.49L331.158 390.418C320.197 387.69 309.189 384.951 298.207 383.015C281.679 380.104 265.132 378.98 248.778 382.37L247.443 382.656C225.883 387.458 207.001 399.747 188.336 411.908C187.925 412.175 187.515 412.442 187.104 412.71C184.598 414.341 182.093 415.972 179.589 417.573C157.93 431.418 133.699 444.16 108.039 442.598C73.9548 440.526 45.4639 412.355 34.7423 379.913L34.7411 379.914L34.7103 379.816C34.618 379.536 34.527 379.255 34.4373 378.974L34.39 378.826V378.815C28.4396 360.084 27.4905 340.162 29.5355 320.716C30.8868 307.898 33.8187 298.355 38.5127 289.78C43.2066 281.203 49.6602 273.597 58.0697 264.617C78.9916 242.256 96.8108 220.974 104.402 191.779C107.573 179.58 109.375 166.083 111.2 152.407L111.257 151.981C111.874 147.357 112.493 142.717 113.171 138.115C115.872 119.704 119.5 101.646 127.456 86.5928C140.185 62.5358 161.838 43.4902 186.083 35.3818C210.322 27.2715 237.166 30.1099 260.269 49.8092C270.77 58.7672 279.231 69.6815 287.681 80.5877C290.15 83.777 292.636 86.9718 295.161 90.1251C306.216 103.892 318.852 117.171 335.085 124.09C335.162 124.123 335.24 124.156 335.317 124.188C335.38 124.215 335.443 124.241 335.506 124.267C350.88 130.677 367.745 130.74 384.649 130.73L385.25 130.73C401.949 130.72 418.66 130.71 433.977 136.75Z" fill="white"/>
<path d="M417.32 218.18C418.26 216.65 420.11 215.67 422.03 215.11C423.95 214.55 425.98 214.36 427.96 214C429.94 213.64 431.94 213.06 433.43 211.89C434.66 210.92 435.45 209.62 436.06 208.29C438.07 203.9 437.94 199.44 436.3 194.95C436.94 194.78 437.88 195.15 438.51 195.5C438.51 194.61 437.32 193.88 436.32 194.16C437.76 192.88 437.9 192.21 437.91 191.4C437.29 192.24 436.82 192.78 436.2 192.88C437.35 189.51 438.06 185.99 438.11 182.48C438.16 178.97 436.97 175.3 434.01 172.84C431.34 170.62 427.59 169.65 424 168.75C419.56 167.64 415.12 166.53 410.68 165.43C409.77 171.36 407.14 177.1 403.08 181.98C400.29 185.34 398.67 189.91 398.94 194.31C399.21 198.81 403.45 201.52 406.43 204.38C410.75 208.53 414.82 213.05 417.31 218.18H417.32Z" fill="#020916"/>
<path d="M292.96 332.84C312.6 333.76 333.56 322.93 333.56 322.93L318.42 257.98L310.6 271.43C310.6 271.43 273.32 331.91 292.96 332.83V332.84Z" fill="#FFBD00"/>
<path d="M69.8201 211.36C69.8201 211.36 66.3101 211.7 62.8801 203.63C59.4401 195.56 52.6501 173.18 52.6501 173.18C52.6501 173.18 49.8001 163.44 51.8401 161.11L55.1401 159.66L72.9802 209.84L69.8201 211.36Z" fill="white"/>
<path d="M86.86 199.82C84.78 201.87 82.66 203.89 80.47 205.79C79.28 206.82 78.09 207.89 76.76 208.68C76.1 209.07 75.4 209.4 74.68 209.61C74.19 209.76 73.65 209.92 73.1299 209.9H73.12C73.12 209.9 69.61 210.24 66.18 202.17C62.74 194.1 55.95 171.72 55.95 171.72C55.95 171.72 53.1 161.98 55.14 159.65C55.14 159.65 55.53 157.69 65.03 167.48C66.09 168.58 67.1 169.74 68.05 170.96C77.58 183.15 82.3399 182.42 82.3399 182.42L88.61 198.05C88.65 198.16 86.97 199.7 86.86 199.81V199.82Z" fill="white"/>
<path d="M67.5195 204.92C67.5195 204.92 73.6195 199.44 78.8895 207.15" stroke="#020916" stroke-width="1.07" stroke-miterlimit="10"/>
<path d="M73.6998 173.21C73.6998 173.21 70.3198 173.45 69.8398 179.59" stroke="#020916" stroke-width="1.07" stroke-miterlimit="10"/>
<path d="M70.6198 169.52C70.6198 169.52 67.2398 169.76 66.7598 175.9" stroke="#020916" stroke-width="1.07" stroke-miterlimit="10"/>
<path d="M76.8102 176.6C76.8102 176.6 73.4302 176.84 72.9502 182.98" stroke="#020916" stroke-width="1.07" stroke-miterlimit="10"/>
<path d="M73.12 209.91C73.12 209.91 69.61 210.25 66.18 202.18C62.74 194.11 55.95 171.73 55.95 171.73C55.95 171.73 53.1 161.99 55.14 159.66" stroke="#020916" stroke-width="1.07" stroke-miterlimit="10"/>
<path d="M100.38 185.41L82.3502 182.43C82.3502 182.43 82.0902 192.11 83.9602 202.01L100.46 207.73" fill="#D0795E"/>
<path d="M318.42 257.99L312.41 284.79L260.76 286.84C243.38 268.72 226.01 250.6 208.62 232.48C207.18 230.98 205.76 229.43 204.32 227.9C211.33 213.7 217.64 199.09 223.99 184.57L318.43 257.98L318.42 257.99Z" fill="#FFBD00"/>
<path d="M184.31 169.67C181.37 170.05 178.6 171.82 175.65 171.67C168.26 171.31 164.53 159.81 157.2 158.68C151.99 157.87 147.09 162.74 141.87 162.06C136.69 161.39 133.93 156.02 129.64 153.45C125.81 151.15 121.52 151.3 117.38 150.45C115.08 149.98 112.88 148.99 110.82 147.73C110.24 147.38 109.63 146.99 108.98 147.01C108.53 147.03 108.11 147.25 107.72 147.48C102.72 150.51 100.38 157.07 98.5804 163.18C94.5004 177.01 89.8204 191.83 91.6104 206.64L205.66 228.89C208.69 213.3 224.45 207.95 223.99 184.57C217.33 183.65 192.8 168.56 184.32 169.67H184.31Z" fill="#FFBD00"/>
<path d="M147.42 285.03C146.04 288 145.76 291.59 143.98 294.28C139.54 301 129.09 298.02 124.12 304.24C120.59 308.67 121.35 316.01 117.91 320.53C114.49 325.01 109.04 324.57 104.75 327.14C100.92 329.44 98.6001 333.55 95.6501 336.94C94.0101 338.83 92.0501 340.33 89.9601 341.55C89.3701 341.89 88.7501 342.24 88.4001 342.87C88.1601 343.3 88.0801 343.82 88.0301 344.32C87.4001 350.72 90.8501 356.62 94.2601 361.76C101.99 373.4 121.89 392.84 121.89 392.84C121.89 392.84 180.46 347.24 191.59 311.19C188.13 301.51 175.07 278.19 167 264.86C162.57 270.59 151.41 276.43 147.42 285.01H147.41L147.42 285.03Z" fill="#FFBD00"/>
<path d="M315.36 269.58L292.95 332.84C246.08 330.53 214.66 316.77 191.59 311.21C188.38 310.44 169.96 280.48 167 264.88C170.74 259.12 176.94 256.13 183.18 257.09L315.36 269.59V269.58Z" fill="#FFBD00"/>
<path d="M121.9 392.86C121.9 392.86 121.99 368.97 89.9695 341.57C89.9695 341.57 87.7695 342.24 87.7695 345C87.7695 347.76 87.7695 352.73 94.6695 362.94C101.57 373.15 112.89 384.47 112.89 384.47L121.91 392.87L121.9 392.86Z" fill="#997100"/>
<path d="M237.1 262.18L279.41 268.32L281.74 263.95" stroke="#020916" stroke-width="1.13" stroke-miterlimit="10"/>
<path d="M288.99 325.26C288.99 325.26 285.07 304.71 312.48 311.05" stroke="#020916" stroke-width="1.13" stroke-miterlimit="10"/>
<path d="M288.78 319.12C272.83 317.41 257.13 313.82 241.41 310.43C231.76 308.35 222.16 305.93 212.51 303.79C204.86 302.11 192.16 296.68 185.66 303.98C183.51 306.39 182.88 310.26 180.49 312.37C178.57 314.05 175.9 314.23 173.88 315.76C170.14 318.61 169.92 324.98 166.71 328.6C162.88 332.93 156.21 331.92 151.98 335.72C149.19 338.22 147.99 342.32 145.93 345.6C141.33 352.89 132.5 356.01 128.85 363.96" stroke="#020916" stroke-width="1.13" stroke-miterlimit="10"/>
<path d="M132.8 383.82C132.8 383.82 133.46 343.17 99.2998 332.34" stroke="#020916" stroke-width="1.13" stroke-miterlimit="10"/>
<path d="M265.14 266.33C265.14 266.33 218.83 215.88 206.93 209.56C199.68 205.71 190.72 210.57 183.91 205.8C181.28 203.96 179.53 200.73 176.8 199.08C170.89 195.49 163.13 200.59 157.08 197.34C153.95 195.65 151.9 191.99 148.76 190.28C145.05 188.25 140.68 189.38 136.57 189.66C125.02 190.45 117.31 190.32 107.27 183.42" stroke="#020916" stroke-width="1.13" stroke-miterlimit="10"/>
<path d="M89.3502 426.76C89.3502 426.76 84.7702 428.3 78.2402 418.63C71.7202 408.96 57.2702 381.31 57.2702 381.31C57.2702 381.31 51.8902 371.14 53.2802 365.51L55.0302 363.97L67.6802 375.95L75.8102 390.45L90.5402 415.58L93.4402 423.22L89.3402 426.77H89.3502V426.76Z" fill="#020916"/>
<path d="M94.97 387.31L107.1 406.15C107.19 406.29 105.31 408.85 105.2 409.04C102.93 412.42 100.6 415.77 98.15 418.99C96.81 420.73 95.48 422.52 93.9 423.99C93.12 424.72 92.27 425.37 91.37 425.88C90.54 426.35 89.6 426.88 88.65 426.8C89.24 426.73 89.72 426.06 90.04 425.56C90.44 424.93 90.74 424.31 90.59 423.49C90.47 422.85 90.15 422.28 89.84 421.72C87.57 417.7 85.35 413.64 83.12 409.59C79.03 402.14 74.94 394.7 70.86 387.26C68.77 383.46 66.69 379.65 64.59 375.84C64.59 375.84 56.65 363.02 53.29 365.5C53.29 365.5 55 357.8 72.11 373C89.23 388.2 94.98 387.3 94.98 387.3L94.97 387.31Z" fill="white"/>
<path d="M92.4196 425.2C92.4196 425.2 95.4597 423.8 93.0097 419.69C90.5497 415.58 65.1197 370.69 65.1197 370.69C65.1197 370.69 62.2996 365.07 56.6396 363.57" stroke="#020916" stroke-width="1.46" stroke-miterlimit="10"/>
<path d="M89.4199 385.59C89.4199 385.59 92.6699 388.14 90.8799 391.84" stroke="#020916" stroke-width="1.46" stroke-miterlimit="10"/>
<path d="M84.79 382.94C84.79 382.94 88.04 385.49 86.25 389.2" stroke="#020916" stroke-width="1.46" stroke-miterlimit="10"/>
<path d="M80.7197 380.24C80.7197 380.24 83.9697 382.79 82.1797 386.49" stroke="#020916" stroke-width="1.46" stroke-miterlimit="10"/>
<path d="M100.81 415.39C100.81 415.39 96.4004 404.96 88.6904 412.21" stroke="#020916" stroke-width="1.46" stroke-miterlimit="10"/>
<path d="M101.37 380.22L113.06 367.97C120.43 378.67 121.84 387.95 121.75 392.43L115.61 398.18L107.11 406.15L94.9805 387.31L101.37 380.23V380.22Z" fill="#D0795E"/>
<path d="M121.74 392.43C121.74 392.43 115.86 377.4 109.08 372.13L113.05 367.97C113.05 367.97 121.77 379.14 121.74 392.43Z" fill="#475569"/>
<path d="M330.51 310.3L324.46 312.09" stroke="#020916" stroke-width="1.13" stroke-miterlimit="10"/>
<path d="M330.03 308.27L323.98 310.06" stroke="#020916" stroke-width="1.13" stroke-miterlimit="10"/>
<path d="M332.34 318.6L326.28 320.39" stroke="#020916" stroke-width="1.13" stroke-miterlimit="10"/>
<path d="M331.88 316.57L325.82 318.36" stroke="#020916" stroke-width="1.13" stroke-miterlimit="10"/>
<path d="M326.68 293.73L320.63 295.52" stroke="#020916" stroke-width="1.13" stroke-miterlimit="10"/>
<path d="M326.22 291.69L320.16 293.48" stroke="#020916" stroke-width="1.13" stroke-miterlimit="10"/>
<path d="M328.53 302.02L322.47 303.81" stroke="#020916" stroke-width="1.13" stroke-miterlimit="10"/>
<path d="M328.07 299.99L322.02 301.78" stroke="#020916" stroke-width="1.13" stroke-miterlimit="10"/>
<path d="M322.86 277.14L316.8 278.93" stroke="#020916" stroke-width="1.13" stroke-miterlimit="10"/>
<path d="M322.4 275.11L316.35 276.9" stroke="#020916" stroke-width="1.13" stroke-miterlimit="10"/>
<path d="M324.71 285.44L318.65 287.23" stroke="#020916" stroke-width="1.13" stroke-miterlimit="10"/>
<path d="M324.24 283.41L318.18 285.2" stroke="#020916" stroke-width="1.13" stroke-miterlimit="10"/>
<path d="M319.05 260.57L312.99 262.36" stroke="#020916" stroke-width="1.13" stroke-miterlimit="10"/>
<path d="M318.59 258.53L312.53 260.32" stroke="#020916" stroke-width="1.13" stroke-miterlimit="10"/>
<path d="M320.89 268.86L314.84 270.64" stroke="#020916" stroke-width="1.13" stroke-miterlimit="10"/>
<path d="M320.43 266.83L314.38 268.62" stroke="#020916" stroke-width="1.13" stroke-miterlimit="10"/>
<path d="M117.37 150.44C117.37 150.44 101.98 177.67 104.72 209.2" stroke="#020916" stroke-width="1.13" stroke-miterlimit="10"/>
<path d="M412.28 233.78L421.52 212.85C421.52 212.85 431.42 211.35 429.26 204.16C428.03 201.67 423.82 205.42 423.82 205.42L428.82 189.56C428.82 189.56 417.31 177.03 412.55 184.1C408.17 190.6 405.63 193.16 402.5 202.22C399.2 213.63 406.38 215.9 406.38 215.9L400.9 223.59L397.17 221.71L388 228.9L388.36 237.45L397.56 243.45L412.49 242.2L415.08 236.43L412.31 233.78H412.29H412.28Z" fill="#D0795E"/>
<path d="M406.36 215.9C410.31 218.21 414.56 215.37 414.56 215.37C414.56 215.37 409.16 222.49 403.23 220.29L406.35 215.9H406.36Z" fill="#475569"/>
<path d="M423.07 209.85C423.07 209.85 426.78 205.25 428.14 207.54" stroke="#020916" stroke-width="1.13" stroke-miterlimit="10"/>
<path d="M412.47 197.45C411.86 198.37 411.25 199.24 410.34 199.79C409.73 200.16 408.87 200.17 408.32 200.71C407.58 201.45 407.96 202.78 408.83 203.14" stroke="#020916" stroke-width="1.3" stroke-miterlimit="10"/>
<path d="M411.5 209.15C412.29 209.19 412.84 209.6 413.34 210.17C413.44 210.09 413.56 210.02 413.66 209.93C413.98 209.66 414.28 209.23 414.17 208.8C414.1 208.51 413.84 208.31 413.58 208.25C413.32 208.18 413.05 208.21 412.79 208.22C412.3 208.25 411.8 208.23 411.32 208.16C410.89 208.11 410.46 208.01 410.04 207.88C409.83 207.81 409.63 207.74 409.42 207.65C409.23 207.57 409.03 207.47 408.82 207.45C408.41 207.42 408.33 207.98 408.37 208.34C408.41 208.77 408.6 209.17 408.84 209.49C408.99 209.69 409.18 209.88 409.37 210.04C409.87 209.36 410.75 209.11 411.51 209.15H411.5Z" fill="#020916"/>
<path d="M411.5 209.15C410.74 209.11 409.87 209.36 409.36 210.04C409.88 210.48 410.52 210.74 411.16 210.79C411.92 210.85 412.68 210.61 413.33 210.16C412.83 209.59 412.28 209.18 411.49 209.15H411.5Z" fill="#F04438"/>
<path d="M415.86 199.27C415.47 199.84 415.47 200.6 415.87 200.95C416.27 201.3 416.91 201.12 417.3 200.54C417.69 199.97 417.69 199.21 417.29 198.86C416.89 198.51 416.25 198.69 415.86 199.27Z" fill="#020916"/>
<path d="M417.53 196.96C417.42 196.82 417.31 196.65 417.35 196.47C417.37 196.37 417.44 196.28 417.53 196.23C417.81 196.05 418.17 196.21 418.45 196.41C419.43 197.09 420.2 198.14 420.61 199.36C420.73 199.7 420.87 200.26 420.61 200.55C420.39 200.79 420.09 200.54 419.96 200.31C419.54 199.51 419.03 198.81 418.48 198.13C418.16 197.74 417.84 197.37 417.54 196.98H417.53V196.96Z" fill="#020916"/>
<path d="M409.36 193.7C408.97 194.27 408.97 195.03 409.37 195.38C409.77 195.73 410.41 195.55 410.8 194.97C411.19 194.4 411.19 193.64 410.79 193.29C410.39 192.94 409.75 193.13 409.36 193.7Z" fill="#020916"/>
<path d="M413.1 192.93C413.25 193.01 413.43 193.08 413.56 192.98C413.64 192.93 413.69 192.83 413.71 192.72C413.78 192.36 413.53 192.02 413.29 191.77C412.43 190.91 411.31 190.38 410.17 190.3C409.86 190.27 409.34 190.27 409.17 190.66C409.03 190.97 409.34 191.22 409.57 191.29C410.37 191.52 411.1 191.84 411.84 192.25C412.25 192.48 412.67 192.71 413.09 192.93H413.1Z" fill="#020916"/>
<path d="M323.3 230.16C323.3 230.16 317.08 234.5 316.25 256.3L318.43 257.99L321.01 264.34L343.53 249.54L334.89 230.9L323.32 230.17L323.3 230.16Z" fill="#94A3B8"/>
<path d="M318.42 257.98L352.16 243.17L333.56 322.92L318.42 257.97V257.98Z" fill="#D0795E"/>
<path d="M333.56 322.93C333.56 322.93 334.5 279.78 327.66 253.92L339.85 248.59C339.85 248.59 343.15 306.58 333.55 322.92H333.56V322.93Z" fill="#475569"/>
<path d="M354.14 148.16L378.82 211.97L348.02 219.89C341.33 188.95 337.47 172.51 335.41 163.92C334.25 159.08 331.07 153.37 332.25 148.33C342.31 153.19 343.89 143.63 354.15 148.17L354.14 148.16Z" fill="#D0795E"/>
<path d="M332.11 153.36C330.42 147.11 324.74 74.2898 325.27 74.0298L339.08 76.8298L354.54 149.19C354.59 149.43 332.97 156.51 332.11 153.37V153.36Z" fill="#D0795E"/>
<path d="M324.5 73.0901C323.76 68.3901 325.78 64.3101 328.05 60.5801C328.24 60.2701 328.44 59.9601 328.54 59.5901C328.62 59.2701 328.61 58.9301 328.59 58.5901C328.51 56.1301 328.57 53.6701 328.91 51.2401C329.07 50.1001 329.3 48.9301 329.89 48.0001C330.16 47.5801 330.68 47.1801 331.06 47.4901C331.27 47.6701 331.33 47.9901 331.37 48.2901C331.74 50.9901 331.74 53.9501 332.31 56.5901C333.54 54.7001 334.4 52.2901 335.37 50.2101C336.2 48.4201 336.87 46.3501 338.1 44.8401C338.32 44.5701 338.56 44.3201 338.87 44.1801C340.74 43.3201 339.74 47.2601 339.52 48.0901C339.75 47.2201 340.12 46.4001 340.59 45.6601C340.91 45.1701 341.62 44.1601 342.27 44.3801C342.65 44.5101 342.74 45.0601 342.76 45.5201C342.93 50.2001 341.24 54.5701 340.53 59.1101C341.5 57.9601 342.09 56.1001 342.9 54.7701C343.84 53.2501 344.89 51.8101 346.03 50.4801C346.33 50.1301 346.65 49.7801 347.06 49.6301C347.47 49.4801 347.98 49.6001 348.19 50.0401C348.36 50.3901 348.28 50.8201 348.17 51.2001C347.83 52.4001 347.28 53.5001 346.77 54.6101C345.27 57.9101 344.56 61.1101 343.77 64.4701C345.53 63.8101 347.43 63.5301 349.28 63.4301C349.68 63.4101 350.1 63.4001 350.45 63.6101C350.81 63.8001 351.1 64.2601 351.01 64.7001C350.95 65.0301 350.71 65.2701 350.47 65.4701C348.07 67.4601 345.82 68.5701 344.04 71.4701C342.75 73.5801 341.65 75.8901 339.99 77.6501C338.34 79.4101 336.32 79.9901 334.13 80.1801C333.26 80.2601 332.73 80.0701 331.88 79.8301C330.77 79.5201 329.54 79.5501 328.43 79.0701C326.29 78.1501 324.87 75.6801 324.47 73.1101H324.48V73.0901H324.5Z" fill="#D0795E"/>
<path d="M339.65 47.6699C339.65 47.6699 336.28 55.1099 335.8 58.9499" stroke="#020916" stroke-width="1.13" stroke-miterlimit="10"/>
<path d="M343.05 64.8398L338.86 67.4398C338.86 67.4398 331.84 65.9698 330.98 73.2098" stroke="#020916" stroke-width="1.13" stroke-miterlimit="10"/>
<path d="M341.3 62.6299C341.3 62.6299 336.01 59.2699 330.86 60.2899" stroke="#020916" stroke-width="1.13" stroke-miterlimit="10"/>
<path d="M455.1 234.93C455.1 234.93 457.26 238.28 456.8 250.33L445.79 251.9C445.79 251.9 445.81 232.97 455.09 234.93H455.1Z" fill="#94A3B8"/>
<path d="M489.65 179.3C489.8 178.05 490.07 176.88 490.45 175.91C491.73 172.62 494.7 171.79 497.11 169.86C498.01 169.14 498.83 168.29 499.41 167.21C499.98 166.15 500.27 164.97 500.8 163.88C500.94 163.59 501.13 163.28 501.4 163.18C501.78 163.03 502.21 163.29 502.42 163.68C502.64 164.06 502.68 164.53 502.71 164.98C502.88 167.4 502.84 169.95 502.3 172.29C504.51 170.87 505.79 170.18 508.32 170.4C509.61 167.22 513.03 164.6 515.21 162.14C516.19 161.03 517.34 160.07 518.63 159.46C518.82 159.37 519.01 159.3 519.21 159.3C519.41 159.3 519.62 159.39 519.72 159.6C519.81 159.78 519.8 160.01 519.76 160.22C519.44 162.03 518.26 163.73 517.05 164.91C518.13 163.79 519.31 162.76 520.69 162.23C520.98 162.12 521.29 162.03 521.6 162.07C523.53 162.33 521.09 165.12 520.57 165.71C521.12 165.1 521.76 164.59 522.46 164.21C522.92 163.96 523.94 163.48 524.4 164.01C524.67 164.31 524.52 164.84 524.36 165.22C522.83 168.76 519.18 172.58 516.94 175.59C518.08 174.58 521.08 173.26 522.42 172.64C522.93 172.41 523.64 172.28 523.91 172.82C524.15 173.32 523.79 173.9 523.45 174.32C521.45 176.72 519.4 179.07 517.31 181.36C516.58 182.15 515.85 182.95 515 183.56C514.02 184.26 512.91 184.7 511.8 185.1C508.02 186.47 503.08 189.55 498.22 191.41C494.69 192.76 492.99 190.17 491.05 187.35C489.7 185.39 489.35 182.16 489.7 179.3H489.68H489.65Z" fill="#D0795E"/>
<path d="M494.48 183.16C494.23 182.66 495.21 176.93 502.45 176.7" stroke="#020916" stroke-width="1.02" stroke-miterlimit="10"/>
<path d="M513.2 179.07C513.2 179.07 515.11 176.35 517.16 175.23" stroke="#020916" stroke-width="1.02" stroke-miterlimit="10"/>
<path d="M520.92 165.34C520.92 165.34 515.82 168.68 511.3 175.32" stroke="#020916" stroke-width="1.02" stroke-miterlimit="10"/>
<path d="M517.61 164.31C517.61 164.31 513.43 166.81 510.39 172.11" stroke="#020916" stroke-width="1.02" stroke-miterlimit="10"/>
<path d="M503.52 186.39C504.08 186.51 504.95 197.8 505.05 198.62C506.49 210.11 507.93 221.6 509.37 233.09C510.15 239.32 510.93 245.54 511.7 251.76C512.51 258.22 513.73 265.07 513.3 271.59C513.08 274.87 512.18 278.19 510.25 280.65C506.52 285.4 499.67 283.77 494.6 283.46C489.07 283.12 483.57 282.61 478.05 282.05C464.86 280.73 451.67 279.16 438.52 277.44L439 245.33L489.54 253.65L489.92 183.45L503.52 186.38H503.53L503.52 186.39Z" fill="#D0795E"/>
<path d="M489.55 253.67C491.26 256.16 495.46 263.61 495.46 263.61" stroke="#020916" stroke-width="1.02" stroke-miterlimit="10"/>
<path d="M446.72 278.67C446.72 278.67 449.32 252.49 453.98 247.81L445.93 246.49C445.93 246.49 442.57 270.26 446.71 278.67H446.72Z" fill="#475569"/>
<path d="M333.56 322.93C333.56 322.93 346.61 237.49 323.3 230.16C323.3 230.16 335.33 218.51 348.02 219.89L345.31 207.47L378.78 180.21C378.78 180.21 382.59 184.57 381.98 198.35C381.98 198.35 390.41 199.55 390.22 214.55C390.22 214.55 410.82 214.47 420.12 232.05C420.12 232.05 427.49 222.49 439.77 233.23C439.77 233.23 448.81 228.82 455.09 234.94C455.09 234.94 443.32 234.56 446.71 278.67L418 277.63L333.55 322.93H333.56Z" fill="white"/>
<path d="M374.14 215.64C374.14 215.64 365.66 214.31 358.86 222.2C358.86 222.2 355.22 219.4 348.01 219.88" stroke="#020916" stroke-width="1.13" stroke-miterlimit="10"/>
<path d="M220 421.56C221.88 415.23 228.26 411.66 234.4 413.48C240.27 415.22 244.07 421.32 242.06 428.1C240.18 434.43 233.71 438.05 227.65 436.25C221.58 434.45 218.13 427.89 220.01 421.56H220ZM259.58 423.08L271.39 426.59L222.74 462.56L210.99 459.08L259.57 423.09L259.58 423.08ZM233.83 425.66C234.28 424.16 233.37 422.68 231.8 422.22C230.23 421.75 228.8 422.54 228.28 424.02C227.75 425.57 228.66 427.04 230.23 427.51C231.8 427.97 233.37 427.23 233.83 425.67V425.66ZM240.37 457.48C242.25 451.15 248.63 447.58 254.77 449.4C260.9 451.22 264.44 457.24 262.43 464.02C260.55 470.35 254.08 473.97 248.02 472.17C241.95 470.37 238.5 463.81 240.38 457.48H240.37ZM254.2 461.58C254.65 460.08 253.74 458.6 252.17 458.13C250.6 457.67 249.17 458.45 248.65 459.93C248.12 461.47 249.03 462.95 250.6 463.42C252.17 463.88 253.73 463.14 254.2 461.58Z" stroke="white" stroke-width="2" stroke-miterlimit="10"/>
<path d="M417.77 97.3398C415.56 91.6298 418.25 85.3998 423.82 83.2698C429.15 81.2298 435.42 83.5698 437.78 89.6898C439.99 95.3998 437.26 101.72 431.76 103.82C426.25 105.92 419.98 103.05 417.77 97.3398ZM447.89 76.0998L458.61 72.0098L443.08 125.94L432.42 130.01L447.89 76.1098V76.0998ZM430.32 92.5398C429.8 91.1798 428.28 90.6198 426.86 91.1598C425.44 91.6998 424.82 93.0898 425.29 94.4698C425.78 95.9098 427.29 96.4798 428.71 95.9298C430.13 95.3898 430.87 93.9498 430.33 92.5398H430.32ZM453.22 112.25C451.01 106.54 453.7 100.31 459.27 98.1798C464.6 96.1398 470.87 98.4798 473.23 104.6C475.44 110.31 472.71 116.63 467.21 118.73C461.7 120.83 455.43 117.96 453.22 112.25ZM465.77 107.45C465.24 106.09 463.74 105.53 462.31 106.07C460.89 106.61 460.27 108 460.73 109.38C461.22 110.82 462.73 111.39 464.15 110.84C465.58 110.3 466.31 108.86 465.77 107.45Z" stroke="white" stroke-width="2" stroke-miterlimit="10"/>
<path d="M421.42 417.94C420.19 421.13 420.92 424.99 423.22 427.52C424.72 429.16 426.85 430.24 429.07 430.42C430.91 430.57 432.66 429.65 434.5 429.92C436.7 430.24 438.74 431.97 440.96 432.56C443.18 433.15 445.46 433.16 447.45 432.18C448.84 431.5 449.93 430.37 450.88 429.16C451.82 427.95 452.39 426.66 454.09 426.29" stroke="#660022" stroke-width="2" stroke-miterlimit="10" stroke-linecap="round"/>
<path d="M430.45 412.64L417.75 388.34C416.27 385.49 413.77 383.31 410.74 382.21L356.31 362.42C352.76 361.13 348.83 362.96 347.54 366.52L332.41 408.15C331.12 411.71 332.95 415.63 336.51 416.92L390.94 436.71C393.96 437.81 397.28 437.74 400.25 436.51L425.59 426.03C430.83 423.87 433.08 417.67 430.45 412.65V412.64ZM420.13 421.82C417.52 420.87 416.17 417.98 417.12 415.37C418.07 412.76 420.96 411.41 423.57 412.36C426.18 413.31 427.53 416.2 426.58 418.81C425.63 421.42 422.74 422.77 420.13 421.82Z" fill="white"/>
<path d="M456.57 407.98C454.27 412.42 449.14 414.76 444.17 415.27C439.2 415.78 434.21 414.8 429.24 414.27C427.29 414.06 425.15 413.97 423.53 415.08C422.54 415.76 421.86 416.82 421.43 417.95" stroke="#660022" stroke-width="2" stroke-miterlimit="10" stroke-linecap="round"/>
<path d="M366.26 398.12C364.8 402.13 361.92 404.53 358.36 403.24C357.11 402.79 355.99 401.9 355.18 400.76C354.08 401.23 352.87 401.25 351.54 400.76C348.25 399.56 346.87 396.33 348.21 392.63C349.34 389.52 352.18 386.92 355.59 384.82C355.24 384.54 354.88 384.29 354.52 384.04L357.42 379.68C364.65 384.77 369.1 390.3 366.26 398.11V398.12ZM362.29 396.46C363.56 392.95 361.77 390.11 359.07 387.62C355.97 389.35 353.19 391.56 352.4 393.73C351.96 394.93 352.45 395.65 353.28 395.94C354.37 396.34 354.99 395.87 355.58 394.97C355.93 394.41 356.28 393.72 356.7 392.97L359.81 394.4C359.4 395.6 358.94 396.64 358.4 397.52C358.77 397.84 359.11 398.05 359.46 398.18C360.6 398.59 361.69 398.06 362.29 396.44V396.46Z" fill="#FF0054"/>
<path d="M369.78 401.11C370.72 398.53 373.45 397.21 375.95 398.12C378.42 399.02 379.69 401.8 378.76 404.37C377.82 406.95 375.05 408.28 372.58 407.38C370.11 406.48 368.85 403.68 369.78 401.1V401.11ZM375.51 403.2C375.75 402.54 375.38 401.83 374.69 401.58C373.97 401.32 373.31 401.65 373.04 402.3C372.76 402.98 373.11 403.68 373.83 403.94C374.52 404.19 375.26 403.89 375.51 403.2Z" fill="#FF0054"/>
<path d="M403.02 399.94L407.83 401.69L386.77 415.37L381.99 413.63L403.02 399.93V399.94ZM386.66 398.32C387.6 395.74 390.33 394.42 392.83 395.33C395.22 396.2 396.64 398.82 395.63 401.58C394.69 404.15 391.93 405.49 389.45 404.59C386.98 403.69 385.72 400.89 386.65 398.31L386.66 398.32ZM392.29 400.37C392.51 399.76 392.17 399.12 391.53 398.89C390.9 398.66 390.28 398.94 390.03 399.55C389.77 400.18 390.11 400.82 390.75 401.05C391.39 401.28 392.06 401.01 392.29 400.38V400.37ZM394.2 413.72C395.14 411.14 397.87 409.82 400.37 410.73C402.76 411.6 404.18 414.22 403.18 416.99C402.24 419.57 399.48 420.9 397 420C394.53 419.1 393.27 416.3 394.2 413.72ZM399.83 415.77C400.05 415.16 399.71 414.52 399.07 414.29C398.43 414.06 397.82 414.34 397.57 414.95C397.31 415.58 397.65 416.21 398.29 416.45C398.93 416.68 399.6 416.41 399.83 415.78V415.77Z" fill="#FF0054"/>
<path d="M168.47 103.52C167.81 106.88 169.19 110.55 171.9 112.64C173.67 114 175.94 114.69 178.16 114.48C180 114.31 181.56 113.1 183.42 113.04C185.64 112.97 187.96 114.32 190.24 114.52C192.53 114.72 194.78 114.33 196.57 113.02C197.82 112.1 198.71 110.81 199.42 109.45C200.13 108.09 200.47 106.73 202.09 106.08" stroke="#660022" stroke-width="2" stroke-miterlimit="10" stroke-linecap="round"/>
<path d="M176.45 96.7399L159.73 74.9999C157.77 72.4599 154.93 70.7299 151.77 70.1799L94.7302 60.1099C91.0102 59.4499 87.4502 61.9399 86.8002 65.6599L79.1002 109.28C78.4402 113 80.9302 116.56 84.6502 117.21L141.69 127.28C144.85 127.84 148.11 127.19 150.82 125.47L173.97 110.76C178.76 107.72 179.9 101.23 176.44 96.7399H176.45ZM167.88 107.56C165.14 107.07 163.31 104.46 163.8 101.73C164.29 98.9999 166.9 97.1599 169.63 97.6499C172.36 98.1399 174.19 100.75 173.71 103.48C173.22 106.22 170.61 108.05 167.88 107.56Z" fill="white"/>
<path d="M201.37 87.6201C199.87 92.3901 195.23 95.5801 190.42 96.9401C185.61 98.3001 180.53 98.2001 175.54 98.5401C173.58 98.6701 171.46 98.9501 170.05 100.32C169.19 101.16 168.7 102.32 168.47 103.5" stroke="#660022" stroke-width="2" stroke-miterlimit="10" stroke-linecap="round"/>
<path d="M110.93 84.4502C110.46 87.0902 109.42 88.8002 107.75 89.6302C106.62 90.1802 105.14 90.2602 103.76 89.9902C102.51 89.7402 101.21 89.1402 100.11 88.2302C98.9097 88.8502 97.3697 88.9802 95.4497 88.6402C95.1097 88.5802 94.8197 88.5002 94.5097 88.4502C94.1797 90.7702 93.7697 93.6302 93.1497 97.4802L88.4697 96.6602C90.0897 86.0202 90.4097 84.0402 90.0997 77.3302L95.0997 76.4902C95.1697 79.1702 95.1997 81.1302 95.0397 83.4502C95.3797 83.5102 95.6997 83.5902 96.0697 83.6602C98.6297 84.1102 99.0897 82.7602 99.5597 80.1402L99.6997 79.3602L103.55 79.8102C103.52 80.3202 103.49 80.8002 103.43 81.2802C103.33 82.4902 103.16 83.6102 102.87 84.6302C103.24 84.8102 103.6 84.9002 103.96 84.9702C104.71 85.1002 105.42 85.0002 105.86 84.5902C106.48 84.0102 106.78 82.9702 107.02 81.5802L107.44 79.2202L111.51 79.7102C111.39 81.0302 111.07 83.6502 110.92 84.4802V84.4602L110.93 84.4502Z" fill="#FF0054"/>
<path d="M132.67 97.3002C131.93 101.5 129.5 104.37 125.77 103.71C124.46 103.48 123.2 102.8 122.2 101.82C121.2 102.48 120.01 102.7 118.62 102.45C115.17 101.84 113.26 98.8902 113.93 95.0302C114.5 91.7702 116.85 88.7202 119.85 86.0602C119.46 85.8402 119.06 85.6602 118.66 85.4702L120.77 80.6802C128.77 84.4402 134.11 89.1102 132.67 97.3002ZM128.47 96.3602C129.12 92.6902 126.86 90.1902 123.77 88.2102C121.02 90.4502 118.66 93.1002 118.26 95.3902C118.04 96.6402 118.65 97.2702 119.51 97.4202C120.65 97.6202 121.18 97.0602 121.61 96.0702C121.86 95.4502 122.08 94.7202 122.37 93.9102L125.69 94.7802C125.5 96.0402 125.22 97.1402 124.85 98.1002C125.26 98.3402 125.64 98.5002 126 98.5602C127.2 98.7702 128.18 98.0602 128.48 96.3602H128.47Z" fill="#FF0054"/>
<path d="M154.7 90.1698L159.74 91.0598L141.37 108.18L136.36 107.3L154.7 90.1698ZM138.3 91.4098C138.77 88.7098 141.24 86.9398 143.86 87.3998C146.37 87.8398 148.22 90.1798 147.71 93.0698C147.23 95.7698 144.73 97.5598 142.14 97.1098C139.55 96.6598 137.82 94.1098 138.3 91.4098ZM144.2 92.4498C144.31 91.8098 143.87 91.2398 143.2 91.1298C142.53 91.0098 141.97 91.3998 141.84 92.0398C141.69 92.6998 142.14 93.2698 142.81 93.3898C143.48 93.5098 144.09 93.1298 144.21 92.4598L144.2 92.4498ZM148.39 105.27C148.86 102.57 151.33 100.8 153.94 101.26C156.45 101.7 158.3 104.04 157.79 106.93C157.32 109.63 154.82 111.42 152.23 110.97C149.64 110.51 147.91 107.97 148.39 105.27ZM154.29 106.31C154.41 105.67 153.96 105.1 153.29 104.99C152.62 104.87 152.06 105.26 151.93 105.89C151.79 106.55 152.23 107.12 152.9 107.24C153.57 107.36 154.18 106.98 154.3 106.31H154.29Z" fill="#FF0054"/>
<path d="M421.17 188.11C422.07 189.15 422.8 190.34 423.72 191.36C424.64 192.38 425.47 194.18 426.84 194.34C425.04 195.48 424.37 196.64 424.03 198.74C423.69 200.84 423.56 203.32 423.81 205.43C425.65 203.33 425.93 201.02 427.77 199.86C428.55 199.37 429.43 199 430.07 198.33C431.11 197.24 431.29 195.6 431.36 194.09C431.45 192.07 431.45 190.03 431.03 188.06C430.61 186.09 429.76 184.16 428.34 182.73C426.88 181.26 424.92 180.4 422.94 179.76C420.8 179.07 418.53 178.61 416.3 178.94C415.06 179.12 413.85 179.58 412.83 180.3C412.14 180.78 410.43 182.24 410.66 183.23C410.86 184.08 412.94 183.86 413.59 183.96C414.95 184.17 416.28 184.61 417.51 185.25C418.89 185.97 420.14 186.93 421.16 188.11H421.17Z" fill="#020916"/>
<defs>
<filter id="filter0_b_2531_18206" x="-21.4482" y="-18.8726" width="570.7" height="511.592" filterUnits="userSpaceOnUse" color-interpolation-filters="sRGB">
<feFlood flood-opacity="0" result="BackgroundImageFix"/>
<feGaussianBlur in="BackgroundImageFix" stdDeviation="25"/>
<feComposite in2="SourceAlpha" operator="in" result="effect1_backgroundBlur_2531_18206"/>
<feBlend mode="normal" in="SourceGraphic" in2="effect1_backgroundBlur_2531_18206" result="shape"/>
</filter>
<linearGradient id="paint0_linear_2531_18206" x1="28.5518" y1="41.9117" x2="436.721" y2="489.02" gradientUnits="userSpaceOnUse">
<stop stop-color="white" stop-opacity="0.3"/>
<stop offset="1" stop-color="white" stop-opacity="0.4"/>
</linearGradient>
</defs>
</svg>
